<svg xmlns="http://www.w3.org/2000/svg" viewBox="0 0 32 32" id="employee-folder"><path d="M30.25 23.5v-14c0-1.379-1.122-2.5-2.5-2.5H15.39l-.155-.621A.5.5 0 0 0 14.75 6h-8a2.503 2.503 0 0 0-2.5 2.5v15c0 1.379 1.122 2.5 2.5 2.5h21c1.378 0 2.5-1.121 2.5-2.5zM27.75 8c.827 0 1.5.673 1.5 1.5v.5H16.141l-.5-2H27.75zm-12.64 2h-1.469l-.75-3h1.469l.75 3zM5.25 23.5v-15c0-.827.673-1.5 1.5-1.5h5.11l.905 3.621a.5.5 0 0 0 .485.379h16v12.5c0 .827-.673 1.5-1.5 1.5h-21c-.827 0-1.5-.673-1.5-1.5z"></path><path d="M26.75 22h-6a.5.5 0 0 0 0 1h6a.5.5 0 0 0 0-1zm0-2h-3a.5.5 0 0 0 0 1h3a.5.5 0 0 0 0-1zm-11.419-.488c-.019-.015-.032-.035-.053-.048-.064-.037-.133-.065-.201-.095-.033-.014-.059-.039-.092-.052l-1.637-.614v-.692a2.304 2.304 0 0 0 .708-1.66v-1.218c.019-.031.052-.051.064-.087l.355-1.065a1.37 1.37 0 0 0-.229-1.039 1.361 1.361 0 0 0-.899-.565l-2.068-.345a1.355 1.355 0 0 0-1.523.947c-.193.075-.366.2-.5.366a1.196 1.196 0 0 0-.244 1.013.502.502 0 0 0 .044.125l.327.633c.01.019.031.028.043.046v1.189c0 .661.281 1.253.727 1.675v.676l-1.636.613c-.037.014-.065.041-.101.057-.065.029-.132.056-.193.091-.021.012-.033.032-.052.046a1.944 1.944 0 0 0-.921 1.632V22.5a.5.5 0 0 0 1 0v-1.356c0-.355.207-.672.517-.834.038-.02.075-.04.118-.057l.643-.241a3.029 3.029 0 0 0 2.214.989c.853 0 1.647-.375 2.218-.994l.658.247c.038.014.073.033.108.052.314.16.525.479.525.838V22.5a.5.5 0 0 0 1 0v-1.356a1.95 1.95 0 0 0-.92-1.632zm-3.589.489c-.425 0-.825-.145-1.164-.383l.268-.101a.5.5 0 0 0 .324-.468v-.459l.027.003c.175.043.356.071.544.071l.01-.001c.023 0 .046-.006.069-.007a2.31 2.31 0 0 0 .451-.059c.019-.005.04-.003.059-.008v.459a.5.5 0 0 0 .324.468l.258.097c-.34.242-.743.388-1.17.388zm1.313-3.649c0 .481-.273.885-.66 1.114-.068.04-.135.083-.208.11a1.31 1.31 0 0 1-.326.066c-.037.004-.074.018-.111.018-.067-.001-.131-.021-.198-.032-.077-.012-.155-.021-.227-.046a1.313 1.313 0 0 1-.305-.161c-.349-.237-.594-.617-.594-1.069v-.965h2.628v.965zm-2.923-1.965-.147-.285a.204.204 0 0 1 .047-.127c.059-.074.361-.081.517-.236a.525.525 0 0 0 .146-.365c0-.145.08-.233.127-.273a.363.363 0 0 1 .292-.081l2.068.345c.1.017.188.071.246.154a.471.471 0 0 1 .081.215l-.222.654h-3.155z"></path></svg>